<svg xmlns="http://www.w3.org/2000/svg" version="1.1" xmlns:xlink="http://www.w3.org/1999/xlink" xmlns:svgjs="http://svgjs.com/svgjs" width="22" height="22" x="0" y="0" viewBox="0 0 6.82666 6.82666" style="enable-background:new 0 0 512 512" xml:space="preserve" class=""><g><g id="Layer_x0020_1"><g id="_535803320"><path id="_342770112" d="m2.26785 4.00474.00000394-.240185c0-.0459803-.0178976-.0888268-.0504055-.121331-.0324685-.0324646-.0753504-.0504134-.121283-.0504134l-.604976-.00000787c-.0459764 0-.0889094.017878-.121394.0503976-.0324567.0324921-.0504213.0754173-.0504213.121362l.00000394.240173-.240311-.00000394.00000394-.240177c0-.109949.0429606-.213559.120744-.29128.077811-.0777362.18137-.120772.291366-.120772l.604988-.00000787c.109961 0 .2135.0430551.291252.120795.077752.0777362.120728.181323.120732.291272l.00000394.240177h-.240307z" fill="#000000" data-original="#000000" class=""></path><path id="_342770016" d="m3.12892 1.29899c-.00194094.019878-.0122992.0380157-.028378.0498189-.0165118.012315-.364827.28148-.111783.804945.007-.0515551.0189173-.101559.0355354-.149087.0752835-.215004.235685-.357228.490248-.434913l.00365354-.00103543c.0185236-.0045315.434465-.10274.692319.160681.0933031-.041122.296949-.110878.479409-.0380236.12911.0515079.220705.161724.272224.327555.00791732.0255039.0144921.0517756.0197205.0787244.0740591-.191366.114346-.428925-.0912205-.764087-.0030315-.00507874-.00547638-.0105197-.00730315-.0162126-.00182283-.00589764-.0518898-.156594-.245311-.275862-.262469-.161791-.664791-.184898-1.16356-.0667362-.00535039.00124409-.0107205.00187402-.0162008.00187402l-.594748-.00001575.247138.268024c.0135118.0146929.0202087.0344646.0182598.0543504z" fill="#000000" data-original="#000000" class=""></path><path id="_535804808" d="m3.15669 2.05099c-.0154567.0444488-.026063.0919134-.0313031.140972-.00279134.0269921-.00426378.0547008-.00426378.0822283l.00000394.464736c-.00012205.23289.0907362.4515.25578.615602.00914961.00910236.0184724.0179606.0279488.0266024.00340551.00254331.00656693.0053937.00945669.00850394.159953.141677.363831.218268.579516.217205.475764-.00264567.862839-.39198.862839-.867906l.00000394-.322622c-.00002362-.00105512-.00002756-.00211811 0-.0031811l.00000394-.152988c0-.0713622-.00962992-.13852-.0285079-.199614-.0382362-.123193-.102193-.20348-.189768-.238661-.178673-.0716811-.408642.0538268-.410957.0551063-.0298386.0165827-.0674764.00925591-.0889134-.0174685-.189886-.237398-.55785-.16098-.58537-.154866-.273205.0840512-.355421.229193-.396469.34635z" fill="#000000" data-original="#000000" class=""></path><path id="_535794608" d="m4.059 4.50553v1.34128l1.41789-.00000394.00000394-.458697c0-.0387402.0314213-.0701614.0701535-.0701614.0387441-.00001181.0701575.0314252.0701575.0701614l.00000394.458697h.6285c.0501772 0 .0909724-.0407992.0909724-.0909803l.00001181-.62326c0-.330039-.207559-.628929-.516567-.744213l-.521882-.17124-.582598.599157c-.0296102.0304331-.0698071.0461299-.110114.046122-.031189 0-.0623701-.00933465-.0889252-.0284449l-.457602-.328417z" fill="#000000" data-original="#000000" class=""></path><path id="_535820744" d="m3.23757 4.93083c0 .101906-.0828307.184827-.18478.184819h-.0207087l.00000394.627268c0 .0363268-.00601575.0712717-.0171063.103898h.903697v-1.3407l-.456878.327862c-.0265394.0190906-.0578543.0284291-.0889134.0284213-.040315 0-.0805118-.0156575-.11011-.0460945l-.0252047-.0259252v.140453z" fill="#000000" data-original="#000000" class=""></path><path id="_535805336" d="m3.23757 4.20923.00000394.379972.125701.129244c.00438189.00452362.011563.00520079.0166811.00156693l.489067-.35098-.518343-.371969-.189906.0622598c.0464961.0335984.0767953.0882717.0767953.149906z" fill="#000000" data-original="#000000" class=""></path><path id="_535804040" d="m4.62771 3.9971-.518075.372043.488815.350835c.00512598.00366142.0121811.00302362.016685-.00155118l.534803-.549972-.522228-.171354z" fill="#000000" data-original="#000000" class=""></path><path id="_535803920" d="m3.43306 3.58069v.30278l.55639.399236.555898-.399197.00000394-.304709c-.158134.105291-.347402.16722-.550665.168346-.00206693.00000394-.00414173.00002362-.00620472.00001968-.200512 0-.392024-.0581024-.555421-.166476z" fill="#000000" data-original="#000000" class=""></path><path id="_535804472" d="m2.8919 5.67592h-2.19643v.0669961c0 .101094.0822047.183315.183425.183315l1.82957-.00000394c.050378 0 .0960945-.0204213.129291-.0534134.00228346-.00281496.00477953-.00545276.0074685-.00788189.0290079-.0324291.0466732-.0751929.0466732-.122012v-.067z" fill="#000000" data-original="#000000" class=""></path><path id="_535804352" d="m2.21569 5.11565h-.84415c-.00159055.0938189-.0784213.169661-.172563.169654h-.124843c-.0941339 0-.170969-.0758268-.172559-.169646l-.206122-.00000394.00000394.419961 2.19644-.00000787v-.419957h-.206244c-.00159055.0938189-.0784213.169661-.172547.169654h-.124846c-.0941496 0-.17098-.0758346-.172567-.169654z" fill="#000000" data-original="#000000" class=""></path><path id="_535804064" d="m2.38826 4.94601c-.0175394 0-.0322874.0147835-.0322874.0322992l.00000394.134378c0 .0175.0147323.0322992.0322717.0322992l.124858-.00001575c.0175394 0 .0322638-.0147717.0322638-.0322795v-.0670433-.00014961l.00000394-.00014961v-.0670433c0-.0175118-.0147402-.0322953-.0322795-.0322953h-.124835z" fill="#000000" data-original="#000000" class=""></path><path id="_535804160" d="m1.19898 4.94601h-.124843c-.0174173 0-.0322795.0147835-.0322795.0322992l.00000787.134378c0 .0175.0148543.0322992.0322677.0322992l.124846-.00001575c.0175394 0 .0322795-.0147717.0322795-.0322795v-.0670433-.00014961l.00000394-.00014961v-.0670433c0-.0175118-.0147441-.0322953-.0322835-.0322953z" fill="#000000" data-original="#000000" class=""></path><path id="_535804520" d="m3.09726 4.55536h-2.60728l.00000394.375469c0 .0241299.0203386.0445118.0444567.0445118l.36715-.00000787c.00159449-.093811.0784173-.169626.172547-.169626l.124846-.00001181c.0941457 0 .170965.0758346.172559.169646l.844157-.00000787c.00159449-.0938071.0784173-.169626.172551-.169626l.124858-.00001181c.0941299 0 .170953.0758346.172547.169646l.367142-.00000787c.0241181 0 .0444567-.0203701.0444567-.0445l.00000787-.375472z" fill="#000000" data-original="#000000" class=""></path><path id="_535803152" d="m2.38801 4.16472h-1.18879-.664776c-.0241181 0-.0444724.020378-.0444724.0445079v.205831l2.60728-.00000394.00000394-.205831c0-.0241299-.0203504-.0445039-.0444685-.0445039h-.223177l-.00154331.00001575-.00150787-.00001575h-.438555z" fill="#000000" data-original="#000000" class=""></path></g></g></g></svg>