<svg
                    xmlns="http://www.w3.org/2000/svg"
                    version="1.1"
                    xmlns:xlink="http://www.w3.org/1999/xlink"
                    xmlns:svgjs="http://svgjs.com/svgjs"
                    width="22"
                    height="22"
                    x="0"
                    y="0"
                    viewBox="0 0 256 256"
                    style="enable-background: new 0 0 512 512"
                    xml:space="preserve"
                  >
                    <g>
                      <g id="Layer_65">
                        <g>
                          <g>
                            <g>
                              <path
                                d="m125.482 169.591c0-1.585 1.285-2.869 2.87-2.869h6.082c-2.245 0-4.066-1.82-4.066-4.066v-36.184h-5.406c.064.646-.141 1.313-.635 1.808l-5.297 5.297c-.875.875-2.295.875-3.17 0l-9.956-9.956 10.896 54.769h17.481c-4.86 0-8.799-3.939-8.799-8.799z"
                                fill="#dae6f1"
                                data-original="#dae6f1"
                              ></path>
                            </g>
                          </g>
                          <g>
                            <g>
                              <path
                                d="m98.76 153.163c-.163-.415-.113-.884.135-1.255l2.872-4.309c.408-.613.257-1.439-.342-1.866l-5.329-3.806c-.372-.266-.587-.701-.57-1.158l.639-17.888c-.46.128-.919.261-1.382.377l-16.897 4.253c-4.924 1.24-8.47 5.537-8.752 10.606l-2.336 40.274h41.868z"
                                fill="#3a70bf"
                                data-original="#3a70bf"
                              ></path>
                            </g>
                          </g>
                          <g>
                            <g>
                              <path
                                d="m105.904 123.621-1.881-1.881c-.388-.388-.594-.883-.638-1.389-2.346 1.004-4.76 1.844-7.219 2.529l-.639 17.888c-.016.457.198.892.57 1.158l5.329 3.806c.599.428.75 1.254.342 1.866l-2.872 4.309c-.248.371-.298.84-.135 1.255l9.906 25.228h8.133z"
                                fill="#5290db"
                                data-original="#5290db"
                              ></path>
                            </g>
                          </g>
                          <g>
                            <g>
                              <path
                                d="m124.962 126.472c.064.646-.141 1.313-.635 1.808l-4.439 4.439.112.281 4 6h6.367v-12.528z"
                                fill="#fc657e"
                                data-original="#fc657e"
                              ></path>
                            </g>
                          </g>
                          <g>
                            <g>
                              <path
                                d="m125.482 169.591c0-1.585 1.285-2.869 2.87-2.869h6.082c-2.245 0-4.066-1.82-4.066-4.066v-23.656h-6.368l-7.2 39.39h17.481c-4.86 0-8.799-3.939-8.799-8.799z"
                                fill="#fc657e"
                                data-original="#fc657e"
                              ></path>
                            </g>
                          </g>
                          <g>
                            <g>
                              <path
                                d="m129.688 136.5h-4.351l-3.258-4.887c-.765-1.148-2.319-1.458-3.467-.693-1.148.766-1.459 2.318-.693 3.467l4 6c.464.695 1.244 1.113 2.08 1.113h5.688c1.381 0 2.5-1.119 2.5-2.5s-1.118-2.5-2.499-2.5z"
                                fill="#000000"
                                data-original="#000000"
                              ></path>
                            </g>
                          </g>
                          <g>
                            <g>
                              <path
                                d="m124.42 136.704c-1.351-.25-2.66.651-2.908 2.01l-7.041 38.518c-.249 1.357.651 2.66 2.01 2.908.151.028.303.041.452.041 1.184 0 2.235-.845 2.456-2.051l7.041-38.518c.249-1.357-.652-2.66-2.01-2.908z"
                                fill="#000000"
                                data-original="#000000"
                              ></path>
                            </g>
                          </g>
                          <g>
                            <g>
                              <path
                                d="m236.195 178.39h-216.39c-3.758 0-6.805 3.047-6.805 6.805s3.047 6.805 6.805 6.805h216.391c3.758 0 6.805-3.047 6.805-6.805-.001-3.758-3.048-6.805-6.806-6.805z"
                                fill="#ad7753"
                                data-original="#ad7753"
                              ></path>
                            </g>
                          </g>
                          <g>
                            <g>
                              <path
                                d="m20.527 192c.283 5.822 5.119 10.5 11.007 10.5h192.931c5.889 0 10.724-4.678 11.007-10.5z"
                                fill="#8e6244"
                                data-original="#8e6244"
                              ></path>
                            </g>
                          </g>
                          <g>
                            <g>
                              <path
                                d="m224.465 202.5h-192.93c-.435 0-.862-.033-1.285-.083v47.523c0 1.966 1.594 3.56 3.56 3.56h188.38c1.966 0 3.56-1.594 3.56-3.56v-47.523c-.422.05-.849.083-1.285.083z"
                                fill="#8e6244"
                                data-original="#8e6244"
                              ></path>
                            </g>
                          </g>
                          <g>
                            <g>
                              <path
                                d="m124.327 125.11-11.837-11.837c-.875-.875-2.295-.875-3.17 0l-5.297 5.297c-.875.875-.875 2.295 0 3.17l11.837 11.837c.875.875 2.295.875 3.17 0l5.297-5.297c.875-.875.875-2.295 0-3.17z"
                                fill="#edf4fc"
                                data-original="#edf4fc"
                              ></path>
                            </g>
                          </g>
                          <g>
                            <g>
                              <path
                                d="m128 107.225c-4.878 0-9.485-1.211-13.545-3.336v4.785c0 1.85-.505 3.622-1.41 5.155l11.281 11.281c.381.381.585.865.635 1.362h5.406v-19.354c-.782.063-1.569.107-2.367.107z"
                                fill="#f9d0b4"
                                data-original="#f9d0b4"
                              ></path>
                            </g>
                          </g>
                          <g>
                            <g>
                              <path
                                d="m157.396 51.174c-.017-.834-.684-1.521-1.518-1.546-12.214-.358-18.65-5.199-21.123-7.623-.675-.662-1.765-.592-2.353.148-10.739 13.505-26.58 11.599-31.907 10.484-.968-.203-1.897.527-1.897 1.516v23.671c0 16.171 13.23 29.401 29.401 29.401.797 0 1.585-.042 2.367-.104v-.822c0-2.246 1.82-4.066 4.066-4.066h9.903c7.864-5.291 13.065-14.271 13.065-24.409v-26.19c.001-.154 0-.307-.004-.46z"
                                fill="#f9d0b4"
                                data-original="#f9d0b4"
                              ></path>
                            </g>
                          </g>
                          <g>
                            <g>
                              <path
                                d="m151.007 19.987c-3.133 0-6.062.885-8.579 2.395-2.94-4.907-8.297-8.22-14.403-8.22h-8.624c-16.691 0-30.348 13.657-30.348 30.348v13.598c2.1-1.681 4.76-2.691 7.659-2.691.642 0 1.271.054 1.887.149v-1.413c.001-.989.929-1.719 1.897-1.516 5.326 1.115 21.168 3.021 31.907-10.484.588-.74 1.678-.81 2.353-.148 2.473 2.424 8.908 7.265 21.123 7.623.834.025 1.501.712 1.518 1.546.003.153.005.306.005.46v3.933c.615-.095 1.245-.149 1.887-.149 3.309 0 6.306 1.315 8.514 3.444v-22.081c-.001-9.237-7.559-16.794-16.796-16.794z"
                                fill="#754e34"
                                data-original="#754e34"
                              ></path>
                            </g>
                          </g>
                          <g>
                            <g>
                              <path
                                d="m159.288 55.416c-.642 0-1.271.054-1.887.15v22.258c0 .663-.03 1.319-.074 1.972.64.103 1.292.171 1.961.171 6.779 0 12.275-5.496 12.275-12.275 0-6.78-5.496-12.276-12.275-12.276z"
                                fill="#f9d0b4"
                                data-original="#f9d0b4"
                              ></path>
                            </g>
                          </g>
                          <g>
                            <g>
                              <path
                                d="m98.599 77.824v-22.258c-.615-.095-1.245-.15-1.887-.15-6.779 0-12.275 5.496-12.275 12.275s5.496 12.275 12.275 12.275c.669 0 1.321-.068 1.961-.171-.044-.652-.074-1.308-.074-1.971z"
                                fill="#f9d0b4"
                                data-original="#f9d0b4"
                              ></path>
                            </g>
                          </g>
                          <g>
                            <g>
                              <path
                                d="m138.397 82.883c-1.057-.887-2.636-.747-3.521.311-1.322 1.577-3.584 2.52-6.05 2.52s-4.728-.942-6.05-2.521c-.89-1.06-2.464-1.196-3.522-.31-1.058.887-1.196 2.464-.31 3.522 2.262 2.697 5.956 4.308 9.882 4.308 3.928 0 7.622-1.61 9.882-4.309.887-1.058.748-2.634-.311-3.521z"
                                fill="#000000"
                                data-original="#000000"
                              ></path>
                            </g>
                          </g>
                          <g>
                            <g>
                              <path
                                d="m141.026 65.495c-2.072 0-3.752 1.68-3.752 3.752s1.68 3.752 3.752 3.752 3.752-1.68 3.752-3.752-1.68-3.752-3.752-3.752z"
                                fill="#000000"
                                data-original="#000000"
                              ></path>
                            </g>
                          </g>
                          <g>
                            <g>
                              <path
                                d="m115.829 65.495c-2.072 0-3.752 1.68-3.752 3.752s1.68 3.752 3.752 3.752 3.752-1.68 3.752-3.752-1.68-3.752-3.752-3.752z"
                                fill="#000000"
                                data-original="#000000"
                              ></path>
                            </g>
                          </g>
                          <g>
                            <g>
                              <path
                                d="m87.491 145.356c-1.381 0-2.5 1.119-2.5 2.5v28.62c0 1.381 1.119 2.5 2.5 2.5s2.5-1.119 2.5-2.5v-28.62c0-1.38-1.119-2.5-2.5-2.5z"
                                fill="#000000"
                                data-original="#000000"
                              ></path>
                            </g>
                          </g>
                          <g>
                            <g>
                              <g>
                                <path
                                  d="m126.093 123.342-11.836-11.837c-.896-.896-2.086-1.389-3.353-1.389s-2.457.493-3.353 1.389l-5.297 5.297c-1.85 1.849-1.85 4.857 0 6.706l11.837 11.837c.896.896 2.086 1.389 3.353 1.389s2.457-.493 3.353-1.389l5.297-5.297c.896-.896 1.39-2.087 1.39-3.353-.001-1.267-.495-2.458-1.391-3.353zm-8.649 8.285-11.472-11.473 4.932-4.932 11.472 11.473z"
                                  fill="#000000"
                                  data-original="#000000"
                                ></path>
                              </g>
                            </g>
                          </g>
                          <g>
                            <g>
                              <path
                                d="m129.351 123.972h-3.991c-1.381 0-2.5 1.119-2.5 2.5s1.119 2.5 2.5 2.5h3.991c1.381 0 2.5-1.119 2.5-2.5s-1.12-2.5-2.5-2.5z"
                                fill="#000000"
                                data-original="#000000"
                              ></path>
                            </g>
                          </g>
                          <g>
                            <g>
                              <path
                                d="m114.455 102.133c-1.381 0-2.5 1.119-2.5 2.5v4.041c0 1.222-.299 2.441-.865 3.528-.638 1.225-.161 2.734 1.063 3.372.369.191.764.283 1.152.283.902 0 1.773-.49 2.22-1.347.936-1.797 1.43-3.815 1.43-5.837v-4.041c0-1.38-1.119-2.499-2.5-2.499z"
                                fill="#000000"
                                data-original="#000000"
                              ></path>
                            </g>
                          </g>
                          <g>
                            <g>
                              <path
                                d="m105.279 119.559c-.534-1.274-2-1.877-3.271-1.34-2.545 1.065-5.181 1.945-7.835 2.613l-16.897 4.253c-6.018 1.515-10.293 6.696-10.638 12.887l-2.296 39.592c-.08 1.378.973 2.561 2.352 2.641.049.003.098.004.146.004 1.314 0 2.417-1.026 2.494-2.355l2.296-39.598c.223-3.999 2.982-7.343 6.866-8.32l16.897-4.254c2.896-.729 5.771-1.688 8.546-2.851 1.274-.534 1.874-1.999 1.34-3.272z"
                                fill="#000000"
                                data-original="#000000"
                              ></path>
                            </g>
                          </g>
                          <g>
                            <g>
                              <path
                                d="m159.896 51.124c-.043-2.177-1.775-3.932-3.943-3.995-11.535-.338-17.442-4.944-19.446-6.91-.827-.81-1.966-1.242-3.112-1.16-1.153.071-2.228.633-2.947 1.539-9.696 12.191-23.817 10.768-29.439 9.592-1.204-.252-2.451.048-3.411.828-.95.771-1.496 1.914-1.497 3.155v23.651c0 17.59 14.311 31.9 31.901 31.9.521 0 1.039-.013 1.554-.037 1.379-.065 2.444-1.235 2.379-2.615-.065-1.379-1.257-2.443-2.615-2.379-.437.021-.876.031-1.317.031-14.833 0-26.901-12.067-26.901-26.9v-22.527c6.061 1.061 21.656 2.205 32.637-10.824 3.253 2.905 9.842 7.085 21.166 7.619v25.732c0 8.731-4.305 16.967-11.514 22.03-1.13.794-1.403 2.353-.609 3.482.794 1.131 2.354 1.403 3.482.609 8.541-5.998 13.641-15.764 13.641-26.122v-26.19z"
                                fill="#000000"
                                data-original="#000000"
                              ></path>
                            </g>
                          </g>
                          <g>
                            <g>
                              <path
                                d="m151.007 17.487c-2.672 0-5.319.569-7.771 1.661-3.639-4.667-9.277-7.486-15.211-7.486h-8.624c-18.112 0-32.848 14.735-32.848 32.848v12.969c0 1.381 1.119 2.5 2.5 2.5s2.5-1.119 2.5-2.5v-12.969c0-15.355 12.492-27.848 27.848-27.848h8.624c4.972 0 9.669 2.684 12.258 7.005.341.568.894.979 1.537 1.14.642.162 1.324.061 1.894-.281 2.224-1.333 4.745-2.038 7.293-2.038 7.882 0 14.295 6.412 14.295 14.294v21.502c0 1.381 1.119 2.5 2.5 2.5s2.5-1.119 2.5-2.5v-21.503c0-10.638-8.656-19.294-19.295-19.294z"
                                fill="#000000"
                                data-original="#000000"
                              ></path>
                            </g>
                          </g>
                          <g>
                            <g>
                              <path
                                d="m159.288 52.916c-.411 0-.818.019-1.221.053-1.375.117-2.396 1.328-2.278 2.704.117 1.375 1.327 2.387 2.704 2.278.262-.022.526-.035.795-.035 5.391 0 9.775 4.385 9.775 9.775s-4.385 9.775-9.775 9.775c-.298 0-.591-.018-.881-.048-1.37-.15-2.602.854-2.745 2.228-.144 1.373.854 2.603 2.228 2.745.484.051.941.075 1.398.075 8.147 0 14.775-6.628 14.775-14.775s-6.627-14.775-14.775-14.775z"
                                fill="#000000"
                                data-original="#000000"
                              ></path>
                            </g>
                          </g>
                          <g>
                            <g>
                              <path
                                d="m97.454 77.432c-.244.021-.491.035-.742.035-5.391 0-9.775-4.385-9.775-9.775s4.385-9.775 9.775-9.775c.258 0 .514.012.766.032 1.391.106 2.582-.917 2.691-2.293.109-1.377-.917-2.581-2.293-2.691-.385-.03-.771-.048-1.164-.048-8.147 0-14.775 6.628-14.775 14.775s6.628 14.775 14.775 14.775c.401 0 .797-.02 1.188-.055 1.375-.123 2.391-1.337 2.268-2.713-.125-1.375-1.33-2.398-2.714-2.267z"
                                fill="#000000"
                                data-original="#000000"
                              ></path>
                            </g>
                          </g>
                          <g>
                            <g>
                              <path
                                d="m208.379 102.232h-73.946c-2.245 0-4.066 1.82-4.066 4.066v56.358c0 2.246 1.82 4.066 4.066 4.066h73.946c2.245 0 4.066-1.82 4.066-4.066v-56.358c0-2.245-1.821-4.066-4.066-4.066z"
                                fill="#edf4fc"
                                data-original="#edf4fc"
                              ></path>
                            </g>
                          </g>
                          <g>
                            <g>
                              <path
                                d="m214.461 166.722h-86.109c-1.585 0-2.87 1.285-2.87 2.869 0 4.86 3.939 8.799 8.799 8.799h74.25c4.86 0 8.799-3.939 8.799-8.799 0-1.584-1.284-2.869-2.869-2.869z"
                                fill="#dae6f1"
                                data-original="#dae6f1"
                              ></path>
                            </g>
                          </g>
                          <g>
                            <g>
                              <path
                                d="m178.246 131.978h-13.68c-1.381 0-2.5 1.119-2.5 2.5s1.119 2.5 2.5 2.5h13.68c1.381 0 2.5-1.119 2.5-2.5s-1.119-2.5-2.5-2.5z"
                                fill="#000000"
                                data-original="#000000"
                              ></path>
                            </g>
                          </g>
                          <g>
                            <g>
                              <g>
                                <path
                                  d="m208.379 99.732h-73.945c-3.621 0-6.566 2.945-6.566 6.566v56.357c0 3.62 2.945 6.565 6.566 6.565h73.945c3.62 0 6.565-2.945 6.565-6.565v-56.357c0-3.62-2.945-6.566-6.565-6.566zm1.565 62.924c0 .863-.702 1.565-1.565 1.565h-73.945c-.863 0-1.566-.702-1.566-1.565v-56.357c0-.863.703-1.566 1.566-1.566h73.945c.863 0 1.565.703 1.565 1.566z"
                                  fill="#000000"
                                  data-original="#000000"
                                ></path>
                              </g>
                            </g>
                          </g>
                          <g>
                            <g>
                              <g>
                                <path
                                  d="m214.461 164.222h-86.109c-2.961 0-5.37 2.409-5.37 5.37 0 6.23 5.068 11.299 11.299 11.299h74.251c6.23 0 11.299-5.068 11.299-11.299-.001-2.961-2.409-5.37-5.37-5.37zm-5.93 11.669h-74.251c-3.474 0-6.299-2.825-6.299-6.299 0-.204.166-.37.37-.37h86.109c.203 0 .369.166.369.37.001 3.473-2.824 6.299-6.298 6.299z"
                                  fill="#000000"
                                  data-original="#000000"
                                ></path>
                              </g>
                            </g>
                          </g>
                          <g>
                            <g>
                              <path
                                d="m60.104 127.396c-4.5-.8-8-4.3-8.9-8.7 0-.2-.4-.2-.4 0-.9 4.4-4.4 7.9-8.9 8.7-.2 0-.2.3 0 .4 4.5.8 8 4.3 8.9 8.7 0 .2.4.2.4 0 .9-4.4 4.4-7.9 8.9-8.7.2-.099.2-.4 0-.4z"
                                fill="#f5c84c"
                                data-original="#f5c84c"
                              ></path>
                            </g>
                          </g>
                          <g>
                            <g>
                              <path
                                d="m196.665 80.21c-3.157-.561-5.613-3.017-6.245-6.104 0-.14-.281-.14-.281 0-.631 3.087-3.087 5.543-6.245 6.104-.14 0-.14.21 0 .281 3.157.562 5.613 3.017 6.245 6.104 0 .14.281.14.281 0 .632-3.087 3.087-5.543 6.245-6.104.14-.071.14-.281 0-.281z"
                                fill="#70d6f9"
                                data-original="#70d6f9"
                              ></path>
                            </g>
                          </g>
                          <g>
                            <g>
                              <path
                                d="m192.754 16.646h-2.3v-2.3c0-1.7-1.4-3.2-3.2-3.2s-3.2 1.4-3.2 3.2v2.3h-2.3c-1.7 0-3.2 1.4-3.2 3.2s1.4 3.2 3.2 3.2h2.3v2.3c0 1.7 1.4 3.2 3.2 3.2s3.2-1.4 3.2-3.2v-2.3h2.3c1.7 0 3.2-1.4 3.2-3.2 0-1.799-1.4-3.2-3.2-3.2z"
                                fill="#87d147"
                                data-original="#87d147"
                              ></path>
                            </g>
                          </g>
                          <g>
                            <g>
                              <path
                                d="m41.904 151c-1.878 0-3.4 1.522-3.4 3.4s1.522 3.4 3.4 3.4 3.4-1.522 3.4-3.4-1.522-3.4-3.4-3.4z"
                                fill="#fc657e"
                                data-original="#fc657e"
                              ></path>
                            </g>
                          </g>
                          <g>
                            <g>
                              <path
                                d="m164.854 0c-1.878 0-3.4 1.522-3.4 3.4s1.522 3.4 3.4 3.4 3.4-1.522 3.4-3.4-1.522-3.4-3.4-3.4z"
                                fill="#f5c84c"
                                data-original="#f5c84c"
                              ></path>
                            </g>
                          </g>
                          <g>
                            <g>
                              <g>
                                <path
                                  d="m236.195 175.891h-216.39c-5.131 0-9.305 4.174-9.305 9.305s4.174 9.305 9.305 9.305h216.391c5.131 0 9.305-4.174 9.305-9.305s-4.175-9.305-9.306-9.305zm0 13.609h-216.39c-2.374 0-4.305-1.931-4.305-4.305s1.931-4.305 4.305-4.305h216.391c2.374 0 4.305 1.931 4.305 4.305s-1.932 4.305-4.306 4.305z"
                                  fill="#000000"
                                  data-original="#000000"
                                ></path>
                              </g>
                            </g>
                          </g>
                          <g>
                            <g>
                              <path
                                d="m235.696 190.218c-1.359-.158-2.609.831-2.765 2.204-.487 4.32-4.128 7.578-8.467 7.578h-192.929c-4.331 0-8.056-3.383-8.479-7.701-.136-1.374-1.363-2.372-2.732-2.244-1.374.135-2.379 1.358-2.244 2.732.684 6.963 6.468 12.213 13.455 12.213h192.93c6.886 0 12.662-5.166 13.436-12.018.154-1.372-.833-2.609-2.205-2.764z"
                                fill="#000000"
                                data-original="#000000"
                              ></path>
                            </g>
                          </g>
                          <g>
                            <g>
                              <path
                                d="m225.75 200.5c-1.381 0-2.5 1.119-2.5 2.5v46.939c0 .585-.476 1.061-1.061 1.061h-188.378c-.585 0-1.061-.476-1.061-1.061v-46.626c0-1.381-1.119-2.5-2.5-2.5s-2.5 1.119-2.5 2.5v46.626c0 3.342 2.719 6.061 6.061 6.061h188.379c3.342 0 6.061-2.719 6.061-6.061v-46.939c-.001-1.381-1.12-2.5-2.501-2.5z"
                                fill="#000000"
                                data-original="#000000"
                              ></path>
                            </g>
                          </g>
                          <g>
                            <g>
                              <path
                                d="m119.11 177.192-10.718-53.872c-.271-1.354-1.586-2.229-2.94-1.964-1.354.27-2.233 1.586-1.964 2.94l10.718 53.872c.237 1.189 1.281 2.012 2.449 2.012.162 0 .326-.016.491-.048 1.354-.269 2.234-1.585 1.964-2.94z"
                                fill="#000000"
                                data-original="#000000"
                              ></path>
                            </g>
                          </g>
                          <g>
                            <g>
                              <g>
                                <path
                                  d="m110.713 176.762-9.409-23.961 2.544-3.815c1.164-1.745.738-4.067-.969-5.287l-4.832-3.452.597-16.731c.05-1.38-1.029-2.538-2.409-2.587-1.342-.06-2.538 1.029-2.587 2.409l-.619 17.34c-.048 1.302.558 2.53 1.615 3.283l4.434 3.167-2.264 3.395c-.697 1.048-.841 2.375-.381 3.556l9.626 24.513c.387.985 1.33 1.587 2.328 1.587.304 0 .612-.056.913-.174 1.285-.507 1.918-1.958 1.413-3.243z"
                                  fill="#000000"
                                  data-original="#000000"
                                ></path>
                              </g>
                            </g>
                          </g>
                        </g>
                      </g>
                    </g>
                  </svg>