<?xml version="1.0" encoding="iso-8859-1"?>
<!-- Generator: Adobe Illustrator 18.0.0, SVG Export Plug-In . SVG Version: 6.00 Build 0)  -->
<!DOCTYPE svg PUBLIC "-//W3C//DTD SVG 1.1//EN" "http://www.w3.org/Graphics/SVG/1.1/DTD/svg11.dtd">
<svg version="1.1" id="Capa_1" xmlns="http://www.w3.org/2000/svg" xmlns:xlink="http://www.w3.org/1999/xlink" x="0px" y="0px"
	 viewBox="0 0 487.384 487.384" style="enable-background:new 0 0 487.384 487.384;" xml:space="preserve">
<g id="XMLID_447_">
	<path id="XMLID_449_" d="M470.524,276.435c-2.04-8.728-10.771-14.138-19.496-12.086l-78.816,18.491
		c-2.294-6.461-7.193-11.967-14.082-14.627l-42.561-16.447c0,0-9.84-50.185-13.115-66.914c-0.726-3.706-5.893-17.275-16.884-23.504
		c-19.491-11.047-43.777-7.698-56.289,10.856l-67.823,100.221c-6.083,8.989-8.303,20.054-6.182,30.697
		c2.158,10.653,8.458,19.997,17.554,25.943l0.614,0.406l-35.115,8.244l-0.378-1.782c-1.109-4.948-5.972-8.023-10.963-7.01
		c-3.85,0.849-6.522,3.993-7.062,7.675c-2.976-3.906-6.523-7.381-10.721-10.066c-9.332-5.971-20.673-7.982-31.493-5.608
		l-56.178,12.371c-1.68,0.375-3.168,1.404-4.086,2.853c-0.917,1.457-1.233,3.223-0.874,4.911l15.173,68.907
		c0.78,3.517,4.247,5.735,7.763,4.958l56.165-12.362c16.426-3.619,28.338-16.465,31.729-31.868c1.693,2.54,4.545,4.139,7.644,4.139
		c0.651,0,1.314-0.071,1.985-0.211c4.972-1.094,8.11-6.005,7.013-10.969l-0.41-1.892l37.018-7.741l-40.204,48.122
		c-9.674,11.57-12.477,27.409-7.379,41.594c5.116,14.185,17.362,24.597,32.188,27.353l84.658,15.737
		c9.046,1.676,18.392-0.459,25.801-5.911c7.417-5.445,12.259-13.714,13.356-22.853c0,0,10.089-81.565,13.115-108.872
		c0.46-4.155,1.169-16.964-0.335-20.511l156.207-32.67c0.093-0.016,0.285-0.055,0.378-0.076
		C467.15,293.881,472.569,285.152,470.524,276.435z M251.69,283.776l15.954-23.569l2.754,14.089
		c1.618,8.204,7.316,14.999,15.112,18.01l17.516,6.772l-20.592,4.83L251.69,283.776z"/>
	<path id="XMLID_448_" d="M255.59,116.008c5.618,19.015,23.01,32.97,43.857,32.97c25.373,0,45.946-20.577,45.946-45.95
		c0-1.274-0.266-2.471-0.36-3.715c8.849-6.913,13.748-14.762,12.383-22.206c-1.898-10.232-14.918-17.052-32.864-19.008
		L281.577,1.173c-0.837-1.116-2.357-1.488-3.609-0.887l-27.686,13.257c-0.224,0.112-0.378,0.341-0.378,0.595
		c0,0.26,0.124,0.489,0.347,0.618l21.095,11.259c0.526,0.28,0.775,0.881,0.62,1.451l-12.339,42.6
		c-16.078,8.236-25.801,19.263-23.916,29.493C237.106,107.089,244.609,112.737,255.59,116.008z"/>
</g>
<g>
</g>
<g>
</g>
<g>
</g>
<g>
</g>
<g>
</g>
<g>
</g>
<g>
</g>
<g>
</g>
<g>
</g>
<g>
</g>
<g>
</g>
<g>
</g>
<g>
</g>
<g>
</g>
<g>
</g>
</svg>
